<?xml version="1.0" encoding="UTF-8" standalone="no"?>
<!-- Created with Inkscape (http://www.inkscape.org/) -->

<svg
   xmlns:dc="http://purl.org/dc/elements/1.1/"
   xmlns:cc="http://creativecommons.org/ns#"
   xmlns:rdf="http://www.w3.org/1999/02/22-rdf-syntax-ns#"
   xmlns:svg="http://www.w3.org/2000/svg"
   xmlns="http://www.w3.org/2000/svg"
   xmlns:sodipodi="http://sodipodi.sourceforge.net/DTD/sodipodi-0.dtd"
   xmlns:inkscape="http://www.inkscape.org/namespaces/inkscape"
   id="svg2"
   version="1.1"
   inkscape:version="0.92.4 5da689c313, 2019-01-14"
   xml:space="preserve"
   width="54.71537"
   height="55"
   viewBox="0 0 54.71537 55"
   sodipodi:docname="logo.svg"><metadata
     id="metadata8"><rdf:RDF><cc:Work
         rdf:about=""><dc:format>image/svg+xml</dc:format><dc:type
           rdf:resource="http://purl.org/dc/dcmitype/StillImage" /><dc:title></dc:title></cc:Work></rdf:RDF></metadata><defs
     id="defs6" /><sodipodi:namedview
     pagecolor="#ffffff"
     bordercolor="#666666"
     borderopacity="1"
     objecttolerance="10"
     gridtolerance="10"
     guidetolerance="10"
     inkscape:pageopacity="0"
     inkscape:pageshadow="2"
     inkscape:window-width="1364"
     inkscape:window-height="747"
     id="namedview4"
     showgrid="false"
     inkscape:zoom="0.63496675"
     inkscape:cx="137.24552"
     inkscape:cy="402.8767"
     inkscape:window-x="0"
     inkscape:window-y="0"
     inkscape:window-maximized="0"
     inkscape:current-layer="g10"
     fit-margin-top="0"
     fit-margin-left="0"
     fit-margin-right="0"
     fit-margin-bottom="0" /><g
     id="g10"
     inkscape:groupmode="layer"
     inkscape:label="mozilla"
     transform="matrix(1.25,0,0,-1.25,0,206.91625)"><g
       id="g12"
       transform="matrix(0.0735654,0,0,0.0735654,0,112.59238)" /><g
       id="g18"
       transform="matrix(0.0735654,0,0,0.0735654,0,112.59238)"><g
         id="g3358"><path
           inkscape:connector-curvature="0"
           id="path20"
           style="fill:#000000;fill-opacity:1;fill-rule:nonzero;stroke:none"
           d="m 536.551,240.836 c -18.031,-23.973 -39.559,-45.102 -63.863,-62.684 -14.532,-1.57 -28.961,-3.996 -43.211,-7.265 -43.602,-10.086 -88.133,-15.637 -132.879,-16.555 -44.719,0.922 -89.223,6.469 -132.797,16.555 -13.528,3.105 -27.223,5.449 -41.016,7.011 -13.465,9.684 -26.109,20.461 -37.801,32.227 -9.531,9.609 -18.394,19.852 -26.527,30.668 33.793,-0.887 66.231,-4.52 98.457,-17.953 12.672,-5.363 30.75,-16.895 49.293,-23.188 29.031,-10.109 59.566,-15.207 90.305,-15.078 30.769,-0.144 61.336,4.953 90.39,15.078 18.543,6.504 36.453,17.825 49.293,23.188 32.817,13.687 65.68,17.234 100.356,17.996 z" /><path
           inkscape:connector-curvature="0"
           id="path22"
           style="fill:#000000;fill-opacity:1;fill-rule:nonzero;stroke:none"
           d="m 409.035,698.02 c -33.453,2.578 -69.523,4.941 -112.437,5.703 -41.903,-0.719 -77.254,-3 -109.821,-5.493 71.438,28.547 151.114,28.547 222.555,0 z" /><path
           inkscape:connector-curvature="0"
           id="path24"
           style="fill:#000000;fill-opacity:1;fill-rule:nonzero;stroke:none"
           d="m 536.551,600.156 c -34.676,0.758 -67.578,4.223 -100.313,17.992 -12.672,5.364 -30.75,16.895 -49.293,23.231 -29.043,10.113 -59.593,15.211 -90.347,15.078 -30.739,0.125 -61.274,-4.977 -90.305,-15.078 C 187.75,634.875 169.84,623.555 157,618.148 124.812,604.715 92.543,601.254 58.543,600.195 c 8.141,10.809 17,21.055 26.523,30.668 11.637,11.785 24.243,22.582 37.68,32.27 13.793,1.551 27.484,3.89 41.012,7.012 43.562,10.074 88.051,15.609 132.754,16.515 44.746,-0.91 89.281,-6.457 132.883,-16.558 14.23,-3.274 28.648,-5.7 43.167,-7.266 24.293,-17.594 45.821,-38.723 63.864,-62.68 z" /><path
           inkscape:connector-curvature="0"
           id="path26"
           style="fill:#0a76bb;fill-opacity:1;fill-rule:nonzero;stroke:none"
           d="m 595.012,450.883 h -2.114 C 532.242,449.785 479.656,447 435.434,486.746 c -14.36,12.883 -23.442,32.27 -36.45,44.77 -27.543,26.273 -64.246,40.761 -102.304,40.382 -38.125,0.446 -74.914,-14.031 -102.512,-40.339 -12.965,-12.672 -22.09,-31.891 -36.449,-44.77 C 113.496,447.043 60.906,449.828 0.254,450.883 H 0 c 0.992,10.027 2.5,19.996 4.52,29.863 2.046,10.07 4.628,20.024 7.73,29.82 3.258,10.168 7.062,20.153 11.402,29.907 41.735,0 79.493,-1.438 115.184,14.277 29.566,13.008 49.547,37.125 73.285,48.867 53.371,25.77 115.582,25.77 168.953,0 23.821,-11.742 43.844,-35.902 73.41,-48.867 36.239,-15.926 74.551,-14.406 117.043,-14.277 8.399,-19.172 14.758,-39.18 18.965,-59.684 2.02,-9.883 3.528,-19.863 4.52,-29.906 z" /><path
           inkscape:connector-curvature="0"
           id="path28"
           style="fill:#000000;fill-opacity:1;fill-rule:nonzero;stroke:none"
           d="m 408.949,142.926 c -71.414,-28.524 -151.054,-28.524 -222.469,0 32.778,-2.492 68.133,-4.774 109.821,-5.492 43.211,0.55 79.238,2.914 112.648,5.492 z" /><path
           inkscape:connector-curvature="0"
           id="path30"
           style="fill:#ed762c;fill-opacity:1;fill-rule:nonzero;stroke:none"
           d="m 595.012,390.188 c -3.086,-30.954 -11.024,-61.231 -23.528,-89.715 -42.449,0 -80.804,1.648 -117,-14.274 -29.566,-13.011 -49.546,-37.129 -73.285,-48.871 -53.371,-25.766 -115.582,-25.766 -168.953,0 -23.863,11.785 -43.969,35.902 -73.535,48.828 C 102.977,301.824 65.258,300.602 23.527,300.434 11.027,328.918 3.09,359.191 0,390.145 h 0.254 c 60.652,1.101 113.238,3.886 157.465,-35.86 14.359,-12.883 23.441,-32.269 36.449,-44.773 27.594,-26.254 64.344,-40.7 102.43,-40.25 38.058,-0.379 74.761,14.105 102.3,40.379 12.965,12.671 22.09,31.89 36.45,44.773 44.265,39.746 96.855,36.957 157.464,35.859 z" /></g></g></g></svg>