<?xml version="1.0" encoding="UTF-8" standalone="no"?>
<!-- Created with Inkscape (http://www.inkscape.org/) -->

<svg
   xmlns:dc="http://purl.org/dc/elements/1.1/"
   xmlns:cc="http://creativecommons.org/ns#"
   xmlns:rdf="http://www.w3.org/1999/02/22-rdf-syntax-ns#"
   xmlns:svg="http://www.w3.org/2000/svg"
   xmlns="http://www.w3.org/2000/svg"
   xmlns:sodipodi="http://sodipodi.sourceforge.net/DTD/sodipodi-0.dtd"
   xmlns:inkscape="http://www.inkscape.org/namespaces/inkscape"
   id="svg2"
   version="1.1"
   inkscape:version="0.91 r13725"
   xml:space="preserve"
   width="667.73749"
   height="180.3625"
   viewBox="0 0 667.73749 180.3625"
   sodipodi:docname="preCICE_Name_SVG_Inkscape.svg"><metadata
     id="metadata8"><rdf:RDF><cc:Work
         rdf:about=""><dc:format>image/svg+xml</dc:format><dc:type
           rdf:resource="http://purl.org/dc/dcmitype/StillImage" /><dc:title></dc:title></cc:Work></rdf:RDF></metadata><defs
     id="defs6" /><sodipodi:namedview
     pagecolor="#ffffff"
     bordercolor="#666666"
     borderopacity="1"
     objecttolerance="10"
     gridtolerance="10"
     guidetolerance="10"
     inkscape:pageopacity="0"
     inkscape:pageshadow="2"
     inkscape:window-width="2479"
     inkscape:window-height="1407"
     id="namedview4"
     showgrid="false"
     inkscape:zoom="0.93611997"
     inkscape:cx="402.92239"
     inkscape:cy="7.352642"
     inkscape:window-x="81"
     inkscape:window-y="33"
     inkscape:window-maximized="1"
     inkscape:current-layer="g10" /><g
     id="g10"
     inkscape:groupmode="layer"
     inkscape:label="ink_ext_XXXXXX"
     transform="matrix(1.25,0,0,-1.25,0,180.3625)"><g
       id="g12"
       transform="scale(0.1,0.1)"><path
         d="M 136.496,596.973 C 187.492,523.477 275.988,482.98 353.984,482.98 c 173.996,0 256.493,139.493 256.493,268.485 0,139.492 -97.497,265.485 -253.493,265.485 -80.996,0 -182.988,-49.489 -220.488,-142.485 l 0,-277.492 z m 0,527.977 0,-100.5 c 53.996,78 148.488,118.5 238.488,118.5 215.993,0 374.989,-173.993 374.989,-394.481 0,-198 -148.496,-391.489 -377.989,-391.489 -88.496,0 -175.496,37.5 -235.488,98.997 L 136.496,0 0,0 l 0,1124.95 136.496,0"
         style="fill:#040606;fill-opacity:1;fill-rule:nonzero;stroke:none"
         id="path14"
         inkscape:connector-curvature="0" /><path
         d="m 1045.48,1000.46 c 44.99,81 112.49,142.49 193.49,142.49 31.5,0 52.5,-3 81,-9 l -25.5,-145.493 c -22.5,10.5 -42,15.003 -70.5,15.003 -76.49,0 -131.99,-45.003 -178.49,-125.999 l 0,-502.481 -136.496,0 0,749.97 136.496,0 0,-124.49"
         style="fill:#040606;fill-opacity:1;fill-rule:nonzero;stroke:none"
         id="path16"
         inkscape:connector-curvature="0" /><path
         d="m 1528.47,824.961 425.98,0 c -6,106.496 -86.99,200.999 -199.49,200.999 -121.5,0 -199.49,-88.499 -226.49,-200.999 z m -10.5,-109.492 c 9,-128.992 97.49,-241.492 241.49,-241.492 98.99,0 178.49,35.996 223.49,121.492 l 98.99,-62.996 C 2006.95,412.48 1904.95,356.98 1753.46,356.98 c -238.49,0 -371.98,173.997 -371.98,392.981 0,223.496 163.49,392.989 371.98,392.989 197.99,0 341.99,-148.497 341.99,-349.481 0,-25.5 -3,-58.508 -6.01,-78 l -571.47,0"
         style="fill:#040606;fill-opacity:1;fill-rule:nonzero;stroke:none"
         id="path18"
         inkscape:connector-curvature="0" /><path
         d="m 2812.45,356.98 c -313.48,0 -563.98,211.497 -563.98,542.981 0,310.489 253.49,542.979 563.98,542.979 103.5,0 199.49,-30 281.99,-81 l -67.5,-110.99 c -62.99,38.99 -136.49,62.99 -214.49,62.99 -236.99,0 -410.98,-173.99 -410.98,-413.979 0,-254.988 170.99,-413.984 410.98,-413.984 82.5,0 159,23.996 232.49,73.496 l 76.5,-106.493 c -89.99,-61.492 -196.49,-96 -308.99,-96"
         style="fill:#040606;fill-opacity:1;fill-rule:nonzero;stroke:none"
         id="path20"
         inkscape:connector-curvature="0" /><path
         d="m 3311.96,374.98 144,0 0,1049.96 -144,0 0,-1049.96 z"
         style="fill:#040606;fill-opacity:1;fill-rule:nonzero;stroke:none"
         id="path22"
         inkscape:connector-curvature="0" /><path
         d="m 4212.43,356.98 c -313.48,0 -563.97,211.497 -563.97,542.981 0,310.489 253.48,542.979 563.97,542.979 103.5,0 199.49,-30 281.99,-81 l -67.5,-110.99 c -62.99,38.99 -136.49,62.99 -214.49,62.99 -236.99,0 -410.98,-173.99 -410.98,-413.979 0,-254.988 170.99,-413.984 410.98,-413.984 82.5,0 159,23.996 232.49,73.496 l 76.5,-106.493 c -89.99,-61.492 -196.5,-96 -308.99,-96"
         style="fill:#040606;fill-opacity:1;fill-rule:nonzero;stroke:none"
         id="path24"
         inkscape:connector-curvature="0" /><path
         d="m 4711.94,374.98 0,1049.96 629.99,0 0,-129 -485.99,0 0,-314.983 485.99,0 0,-128.992 -485.99,0 0,-347.988 485.99,0 0,-128.997 -629.99,0"
         style="fill:#040606;fill-opacity:1;fill-rule:nonzero;stroke:none"
         id="path26"
         inkscape:connector-curvature="0" /></g></g></svg>